<?xml version="1.0" standalone="no"?><!DOCTYPE svg PUBLIC "-//W3C//DTD SVG 1.1//EN" "http://www.w3.org/Graphics/SVG/1.1/DTD/svg11.dtd"><svg t="1632650432269" class="icon" viewBox="0 0 1024 1024" version="1.1" xmlns="http://www.w3.org/2000/svg" p-id="4694" width="28" height="28" xmlns:xlink="http://www.w3.org/1999/xlink"><defs><style type="text/css"></style></defs><path d="M883.2 192L601.6 467.2h-6.4L499.2 371.2v-6.4L806.4 57.6c6.4-6.4 0-12.8-6.4-12.8h-576C172.8 44.8 128 89.6 128 140.8v748.8c0 51.2 44.8 96 96 96h569.6c51.2 0 96-44.8 96-96V198.4c0-6.4-6.4-12.8-6.4-6.4zM467.2 409.6c0-6.4 6.4-6.4 12.8-6.4l83.2 83.2c6.4 6.4 0 12.8-6.4 12.8L460.8 512c-6.4 0-6.4 0-6.4-6.4l12.8-96z m38.4 428.8h-256c-19.2 0-32-12.8-32-32s12.8-32 32-32h256c19.2 0 32 12.8 32 32 0 12.8-19.2 32-32 32z m224-153.6H243.2c-19.2 0-32-12.8-32-32s12.8-32 32-32h486.4c19.2 0 32 12.8 32 32s-12.8 32-32 32z" p-id="4695"></path></svg>