<?xml version="1.0" standalone="no"?><!DOCTYPE svg PUBLIC "-//W3C//DTD SVG 1.1//EN" "http://www.w3.org/Graphics/SVG/1.1/DTD/svg11.dtd"><svg t="1632625147135" class="icon" viewBox="0 0 1024 1024" version="1.1" xmlns="http://www.w3.org/2000/svg" p-id="12477" xmlns:xlink="http://www.w3.org/1999/xlink" width="28" height="28"><defs><style type="text/css"></style></defs><path d="M512 64C264.6 64 64 264.6 64 512s200.6 448 448 448 448-200.6 448-448S759.4 64 512 64zM297.4 405.7c0-34.4 27.9-62.3 62.3-62.3s62.3 27.9 62.3 62.3v0.1c0 34.4-27.9 62.3-62.3 62.3-34.5-0.1-62.3-28-62.3-62.4zM512 778.8c-105.4 0-190.8-85.4-190.8-190.8h381.6c0 105.4-85.4 190.8-190.8 190.8zM664.3 468c-34.4 0-62.3-27.9-62.3-62.3s27.9-62.3 62.3-62.3 62.3 27.9 62.3 62.3-27.9 62.3-62.3 62.3z" fill="" p-id="12478"></path></svg>