<?xml version="1.0" standalone="no"?><!DOCTYPE svg PUBLIC "-//W3C//DTD SVG 1.1//EN" "http://www.w3.org/Graphics/SVG/1.1/DTD/svg11.dtd"><svg t="1632625272540" class="icon" viewBox="0 0 1024 1024" version="1.1" xmlns="http://www.w3.org/2000/svg" p-id="16280" xmlns:xlink="http://www.w3.org/1999/xlink" width="28" height="28"><defs><style type="text/css"></style></defs><path d="M1019.904 450.56L536.576 557.056l417.792 208.896C999.424 692.224 1024 606.208 1024 512c0-20.48 0-40.96-4.096-61.44z m-12.288-61.44C958.464 184.32 786.432 28.672 573.44 4.096L446.464 512l561.152-122.88zM737.28 970.752c73.728-36.864 139.264-90.112 188.416-159.744L507.904 602.112l229.376 368.64zM512 0C229.376 0 0 229.376 0 512s229.376 512 512 512c61.44 0 118.784-12.288 172.032-28.672L385.024 512 512 0z" p-id="16281"></path></svg>