<?xml version="1.0" standalone="no"?><!DOCTYPE svg PUBLIC "-//W3C//DTD SVG 1.1//EN" "http://www.w3.org/Graphics/SVG/1.1/DTD/svg11.dtd"><svg t="1634262865114" class="icon" viewBox="0 0 1024 1024" version="1.1" xmlns="http://www.w3.org/2000/svg" p-id="3453" xmlns:xlink="http://www.w3.org/1999/xlink" width="200" height="200"><defs><style type="text/css"></style></defs><path d="M193.834616 700.68311a56.5 56.5 0 1 0 79.901672-79.904461 56.5 56.5 0 1 0-79.901672 79.904461Z" fill="#765A4E" p-id="3454"></path><path d="M233.8 733.4c-18.6 0-37.2-7.1-51.4-21.3-28.3-28.3-28.3-74.5 0-102.8 28.3-28.3 74.5-28.4 102.8 0 28.3 28.4 28.3 74.5 0 102.8-14.1 14.2-32.7 21.3-51.4 21.3z m0-113c-10.3 0-20.6 3.9-28.5 11.8-15.7 15.7-15.7 41.3 0 57 15.7 15.7 41.3 15.7 57 0 15.7-15.7 15.7-41.3 0-57-7.8-7.8-18.1-11.8-28.5-11.8z" fill="#4C4848" p-id="3455"></path><path d="M137.301089 757.21423a40 40 0 1 0 56.567555-56.56953 40 40 0 1 0-56.567555 56.56953Z" fill="#765A4E" p-id="3456"></path><path d="M165.6 785.1c-14.4 0-28.8-5.5-39.7-16.4-21.9-21.9-21.9-57.5 0-79.4 21.9-21.9 57.5-21.9 79.4 0 21.9 21.9 21.9 57.5 0 79.4-10.9 10.9-25.3 16.4-39.7 16.4z m0-79.9c-6.1 0-12.2 2.3-16.8 6.9-9.3 9.3-9.3 24.3 0 33.6 9.3 9.2 24.3 9.2 33.6 0 9.3-9.3 9.3-24.3 0-33.6-4.6-4.6-10.7-6.9-16.8-6.9z" fill="#4C4848" p-id="3457"></path><path d="M80.9 757.2c15.6-15.6 40.9-15.6 56.5 0 15.6 15.6 15.6 40.9 0 56.5l-56.5-56.5z" fill="#765A4E" p-id="3458"></path><path d="M137.4 829.9c-4.1 0-8.3-1.6-11.5-4.7l-56.5-56.5c-6.3-6.3-6.3-16.6 0-22.9 21.9-21.9 57.5-21.9 79.4 0 21.9 21.9 21.9 57.5 0 79.4-3.1 3.1-7.3 4.7-11.4 4.7z m-29.1-68.2l24.5 24.5c0.2-6.3-2.1-12.8-6.9-17.6-4.8-4.8-11.3-6.9-17.6-6.9z" fill="#4C4848" p-id="3459"></path><path d="M750.230252 700.686574a56.5 56.5 0 1 0 79.901672-79.90446 56.5 56.5 0 1 0-79.901672 79.90446Z" fill="#765A4E" p-id="3460"></path><path d="M790.2 733.4c-18.6 0-37.2-7.1-51.4-21.3-28.3-28.3-28.3-74.5 0-102.8 28.3-28.3 74.5-28.4 102.8 0 28.3 28.4 28.3 74.5 0 102.8-14.1 14.2-32.7 21.3-51.4 21.3z m0-113c-10.3 0-20.6 3.9-28.5 11.8-15.7 15.7-15.7 41.3 0 57 15.7 15.7 41.3 15.7 57 0 15.7-15.7 15.7-41.3 0-57-7.8-7.8-18.1-11.8-28.5-11.8z" fill="#4C4848" p-id="3461"></path><path d="M830.096604 757.219402a40 40 0 1 0 56.567555-56.56953 40 40 0 1 0-56.567555 56.56953Z" fill="#765A4E" p-id="3462"></path><path d="M858.4 785.1c-14.4 0-28.8-5.5-39.7-16.4-21.9-21.9-21.9-57.5 0-79.4 21.9-21.9 57.5-21.9 79.4 0 21.9 21.9 21.9 57.5 0 79.4-10.9 10.9-25.3 16.4-39.7 16.4z m0-79.9c-6.1 0-12.2 2.3-16.8 6.9-9.3 9.3-9.3 24.3 0 33.6 9.3 9.2 24.3 9.2 33.6 0 9.3-9.3 9.3-24.3 0-33.6-4.6-4.6-10.7-6.9-16.8-6.9z" fill="#4C4848" p-id="3463"></path><path d="M943.2 757.2c-15.6-15.6-40.9-15.6-56.5 0-15.6 15.6-15.6 40.9 0 56.5l56.5-56.5z" fill="#765A4E" p-id="3464"></path><path d="M886.7 829.9c-4.1 0-8.3-1.6-11.5-4.7-21.9-21.9-21.9-57.5 0-79.4 21.9-21.9 57.5-21.9 79.4 0 6.3 6.3 6.3 16.6 0 22.9l-56.5 56.5c-3.1 3.1-7.3 4.7-11.4 4.7z m28.2-68.2c-6.1 0-12.2 2.3-16.8 6.9-4.8 4.8-7.1 11.3-6.9 17.6l24.5-24.5h-0.8z" fill="#4C4848" p-id="3465"></path><path d="M512 528.7m-250.9 0a250.9 250.9 0 1 0 501.8 0 250.9 250.9 0 1 0-501.8 0Z" fill="#F7D5BA" p-id="3466"></path><path d="M338.9 644.1m-47.7 0a47.7 47.7 0 1 0 95.4 0 47.7 47.7 0 1 0-95.4 0Z" fill="#F9A895" p-id="3467"></path><path d="M698.7 644.1m-47.7 0a47.7 47.7 0 1 0 95.4 0 47.7 47.7 0 1 0-95.4 0Z" fill="#F9A895" p-id="3468"></path><path d="M258.6 601.7c-40.3 0-73-32.7-73-73s32.7-73 73-73" fill="#F2BD99" p-id="3469"></path><path d="M765.5 601.7c40.3 0 73-32.7 73-73s-32.7-73-73-73" fill="#F2BD99" p-id="3470"></path><path d="M512 795.8c-147.2 0-267-119.8-267-267.1s119.8-267.1 267.1-267.1 267.1 119.8 267.1 267.1C779.1 676 659.3 795.8 512 795.8z m0-501.7c-129.4 0-234.7 105.3-234.7 234.7 0 129.4 105.3 234.7 234.7 234.7s234.7-105.3 234.7-234.7c0-129.5-105.3-234.7-234.7-234.7z" fill="#4C4848" p-id="3471"></path><path d="M765.5 617.9c-9 0-16.2-7.2-16.2-16.2s7.2-16.2 16.2-16.2c31.3 0 56.8-25.5 56.8-56.8S796.8 472 765.5 472c-9 0-16.2-7.2-16.2-16.2s7.2-16.2 16.2-16.2c49.2 0 89.2 40 89.2 89.1 0 49.2-40 89.2-89.2 89.2z" fill="#4C4848" p-id="3472"></path><path d="M258.6 617.9c-49.2 0-89.2-40-89.2-89.2s40-89.1 89.2-89.1c9 0 16.2 7.2 16.2 16.2s-7.2 16.2-16.2 16.2c-31.3 0-56.8 25.4-56.8 56.7s25.5 56.8 56.8 56.8c9 0 16.2 7.2 16.2 16.2s-7.3 16.2-16.2 16.2z" fill="#4C4848" p-id="3473"></path><path d="M218 467.5c29.1-147.3 149.7-257.8 294.1-257.8 144.1 0 264.6 110.1 293.9 257l-588 0.8z" fill="#F4CA19" p-id="3474"></path><path d="M218 483.7c-4.8 0-9.4-2.2-12.5-5.9-3.1-3.8-4.3-8.7-3.4-13.4 31-157 161.4-270.9 310-270.9 148.3 0 278.6 113.6 309.8 270.1 0.9 4.8-0.3 9.7-3.4 13.5s-7.7 5.9-12.5 5.9l-588 0.7z m294.1-257.8c-127.1 0-239.4 93.7-273.8 225.4l547.3-0.7c-34.5-131.3-146.8-224.7-273.5-224.7z" fill="#4C4848" p-id="3475"></path><path d="M399.4 561.7m-31.4 0a31.4 31.4 0 1 0 62.8 0 31.4 31.4 0 1 0-62.8 0Z" fill="#4C4848" p-id="3476"></path><path d="M624.7 561.7m-31.4 0a31.4 31.4 0 1 0 62.8 0 31.4 31.4 0 1 0-62.8 0Z" fill="#4C4848" p-id="3477"></path><path d="M561.8 664.1c0 27.5-22.3 49.8-49.8 49.8s-49.8-22.3-49.8-49.8" fill="#4C4848" p-id="3478"></path></svg>